<mxfile host="app.diagrams.net" agent="Mozilla/5.0 (Macintosh; Intel Mac OS X 10_15_7) AppleWebKit/537.36 (KHTML, like Gecko) Chrome/136.0.0.0 Safari/537.36" version="27.0.8">
  <diagram name="Page-1" id="xsCpe5d8yFEaPoY_1fUW">
    <mxGraphModel dx="1953" dy="2282" grid="1" gridSize="10" guides="1" tooltips="1" connect="1" arrows="1" fold="1" page="1" pageScale="1" pageWidth="850" pageHeight="1100" math="0" shadow="0">
      <root>
        <mxCell id="0" />
        <mxCell id="1" parent="0" />
        <mxCell id="f_I7BIO37TBJ3zswNN28-3" value="" style="edgeStyle=orthogonalEdgeStyle;rounded=0;orthogonalLoop=1;jettySize=auto;html=1;" parent="1" source="f_I7BIO37TBJ3zswNN28-1" target="f_I7BIO37TBJ3zswNN28-2" edge="1">
          <mxGeometry relative="1" as="geometry" />
        </mxCell>
        <mxCell id="f_I7BIO37TBJ3zswNN28-17" style="edgeStyle=orthogonalEdgeStyle;rounded=0;orthogonalLoop=1;jettySize=auto;html=1;exitX=0.5;exitY=0;exitDx=0;exitDy=0;entryX=0.5;entryY=0;entryDx=0;entryDy=0;" parent="1" source="f_I7BIO37TBJ3zswNN28-1" target="f_I7BIO37TBJ3zswNN28-14" edge="1">
          <mxGeometry relative="1" as="geometry">
            <Array as="points">
              <mxPoint x="150" y="-70" />
              <mxPoint x="860" y="-70" />
            </Array>
          </mxGeometry>
        </mxCell>
        <mxCell id="f_I7BIO37TBJ3zswNN28-1" value="Turbine" style="rounded=0;whiteSpace=wrap;html=1;" parent="1" vertex="1">
          <mxGeometry x="110" width="80" height="60" as="geometry" />
        </mxCell>
        <mxCell id="f_I7BIO37TBJ3zswNN28-50" value="" style="edgeStyle=orthogonalEdgeStyle;rounded=0;orthogonalLoop=1;jettySize=auto;html=1;" parent="1" source="f_I7BIO37TBJ3zswNN28-2" target="f_I7BIO37TBJ3zswNN28-49" edge="1">
          <mxGeometry relative="1" as="geometry" />
        </mxCell>
        <mxCell id="f_I7BIO37TBJ3zswNN28-2" value="IOT Gateway" style="rounded=0;whiteSpace=wrap;html=1;" parent="1" vertex="1">
          <mxGeometry x="110" y="260" width="80" height="60" as="geometry" />
        </mxCell>
        <mxCell id="f_I7BIO37TBJ3zswNN28-57" style="edgeStyle=orthogonalEdgeStyle;rounded=0;orthogonalLoop=1;jettySize=auto;html=1;exitX=0.25;exitY=1;exitDx=0;exitDy=0;entryX=0.25;entryY=0;entryDx=0;entryDy=0;" parent="1" source="f_I7BIO37TBJ3zswNN28-4" target="f_I7BIO37TBJ3zswNN28-47" edge="1">
          <mxGeometry relative="1" as="geometry" />
        </mxCell>
        <mxCell id="f_I7BIO37TBJ3zswNN28-4" value="" style="whiteSpace=wrap;html=1;" parent="1" vertex="1">
          <mxGeometry x="550" y="110" width="160" height="230" as="geometry" />
        </mxCell>
        <mxCell id="f_I7BIO37TBJ3zswNN28-54" style="edgeStyle=orthogonalEdgeStyle;rounded=0;orthogonalLoop=1;jettySize=auto;html=1;exitX=1;exitY=0.75;exitDx=0;exitDy=0;entryX=0.75;entryY=1;entryDx=0;entryDy=0;" parent="1" source="f_I7BIO37TBJ3zswNN28-7" target="f_I7BIO37TBJ3zswNN28-47" edge="1">
          <mxGeometry relative="1" as="geometry" />
        </mxCell>
        <mxCell id="f_I7BIO37TBJ3zswNN28-7" value="Platform" style="whiteSpace=wrap;html=1;" parent="1" vertex="1">
          <mxGeometry x="365" y="510" width="120" height="60" as="geometry" />
        </mxCell>
        <mxCell id="f_I7BIO37TBJ3zswNN28-21" style="edgeStyle=orthogonalEdgeStyle;rounded=0;orthogonalLoop=1;jettySize=auto;html=1;exitX=0.25;exitY=1;exitDx=0;exitDy=0;entryX=0.25;entryY=0;entryDx=0;entryDy=0;" parent="1" source="f_I7BIO37TBJ3zswNN28-14" target="f_I7BIO37TBJ3zswNN28-19" edge="1">
          <mxGeometry relative="1" as="geometry" />
        </mxCell>
        <mxCell id="f_I7BIO37TBJ3zswNN28-14" value="Supplier Meter" style="whiteSpace=wrap;html=1;" parent="1" vertex="1">
          <mxGeometry x="800" width="120" height="60" as="geometry" />
        </mxCell>
        <mxCell id="f_I7BIO37TBJ3zswNN28-22" style="edgeStyle=orthogonalEdgeStyle;rounded=0;orthogonalLoop=1;jettySize=auto;html=1;exitX=0.75;exitY=0;exitDx=0;exitDy=0;entryX=0.75;entryY=1;entryDx=0;entryDy=0;" parent="1" source="f_I7BIO37TBJ3zswNN28-19" target="f_I7BIO37TBJ3zswNN28-14" edge="1">
          <mxGeometry relative="1" as="geometry" />
        </mxCell>
        <mxCell id="f_I7BIO37TBJ3zswNN28-42" style="edgeStyle=orthogonalEdgeStyle;rounded=0;orthogonalLoop=1;jettySize=auto;html=1;exitX=0.75;exitY=1;exitDx=0;exitDy=0;entryX=0.5;entryY=0;entryDx=0;entryDy=0;" parent="1" source="f_I7BIO37TBJ3zswNN28-19" target="f_I7BIO37TBJ3zswNN28-43" edge="1">
          <mxGeometry relative="1" as="geometry">
            <mxPoint x="960.0000000000005" y="300" as="targetPoint" />
            <Array as="points">
              <mxPoint x="890" y="270" />
              <mxPoint x="980" y="270" />
            </Array>
          </mxGeometry>
        </mxCell>
        <mxCell id="f_I7BIO37TBJ3zswNN28-19" value="Electrical Panel" style="whiteSpace=wrap;html=1;" parent="1" vertex="1">
          <mxGeometry x="800" y="150" width="120" height="60" as="geometry" />
        </mxCell>
        <mxCell id="f_I7BIO37TBJ3zswNN28-32" value="Quantum Heater" style="whiteSpace=wrap;html=1;" parent="1" vertex="1">
          <mxGeometry x="770" y="360" width="120" height="60" as="geometry" />
        </mxCell>
        <mxCell id="f_I7BIO37TBJ3zswNN28-39" style="edgeStyle=orthogonalEdgeStyle;rounded=0;orthogonalLoop=1;jettySize=auto;html=1;exitX=1;exitY=0.25;exitDx=0;exitDy=0;entryX=0.25;entryY=1;entryDx=0;entryDy=0;" parent="1" source="f_I7BIO37TBJ3zswNN28-37" target="f_I7BIO37TBJ3zswNN28-19" edge="1">
          <mxGeometry relative="1" as="geometry" />
        </mxCell>
        <mxCell id="f_I7BIO37TBJ3zswNN28-41" style="edgeStyle=orthogonalEdgeStyle;rounded=0;orthogonalLoop=1;jettySize=auto;html=1;exitX=1;exitY=0.75;exitDx=0;exitDy=0;entryX=0.5;entryY=0;entryDx=0;entryDy=0;" parent="1" source="f_I7BIO37TBJ3zswNN28-37" target="f_I7BIO37TBJ3zswNN28-32" edge="1">
          <mxGeometry relative="1" as="geometry" />
        </mxCell>
        <mxCell id="f_I7BIO37TBJ3zswNN28-37" value="Smart Relay" style="whiteSpace=wrap;html=1;" parent="1" vertex="1">
          <mxGeometry x="570" y="240" width="120" height="60" as="geometry" />
        </mxCell>
        <mxCell id="f_I7BIO37TBJ3zswNN28-40" style="edgeStyle=orthogonalEdgeStyle;rounded=0;orthogonalLoop=1;jettySize=auto;html=1;exitX=1;exitY=0.5;exitDx=0;exitDy=0;" parent="1" source="f_I7BIO37TBJ3zswNN28-38" edge="1">
          <mxGeometry relative="1" as="geometry">
            <mxPoint x="760" y="250" as="targetPoint" />
          </mxGeometry>
        </mxCell>
        <mxCell id="f_I7BIO37TBJ3zswNN28-38" value="Sub-Meter" style="whiteSpace=wrap;html=1;" parent="1" vertex="1">
          <mxGeometry x="570" y="150" width="120" height="60" as="geometry" />
        </mxCell>
        <mxCell id="f_I7BIO37TBJ3zswNN28-43" value="Load" style="whiteSpace=wrap;html=1;" parent="1" vertex="1">
          <mxGeometry x="920" y="360" width="120" height="60" as="geometry" />
        </mxCell>
        <mxCell id="f_I7BIO37TBJ3zswNN28-44" value="Smart Hub" style="text;html=1;align=center;verticalAlign=middle;resizable=0;points=[];autosize=1;strokeColor=none;fillColor=none;" parent="1" vertex="1">
          <mxGeometry x="590" y="80" width="80" height="30" as="geometry" />
        </mxCell>
        <mxCell id="f_I7BIO37TBJ3zswNN28-52" style="edgeStyle=orthogonalEdgeStyle;rounded=0;orthogonalLoop=1;jettySize=auto;html=1;exitX=0.25;exitY=1;exitDx=0;exitDy=0;entryX=1;entryY=0.25;entryDx=0;entryDy=0;" parent="1" source="f_I7BIO37TBJ3zswNN28-47" target="f_I7BIO37TBJ3zswNN28-7" edge="1">
          <mxGeometry relative="1" as="geometry" />
        </mxCell>
        <mxCell id="f_I7BIO37TBJ3zswNN28-58" style="edgeStyle=orthogonalEdgeStyle;rounded=0;orthogonalLoop=1;jettySize=auto;html=1;exitX=0.75;exitY=0;exitDx=0;exitDy=0;entryX=0.75;entryY=1;entryDx=0;entryDy=0;" parent="1" source="f_I7BIO37TBJ3zswNN28-47" target="f_I7BIO37TBJ3zswNN28-4" edge="1">
          <mxGeometry relative="1" as="geometry" />
        </mxCell>
        <mxCell id="f_I7BIO37TBJ3zswNN28-47" value="Internet" style="whiteSpace=wrap;html=1;" parent="1" vertex="1">
          <mxGeometry x="550" y="380" width="160" height="60" as="geometry" />
        </mxCell>
        <mxCell id="f_I7BIO37TBJ3zswNN28-51" style="edgeStyle=orthogonalEdgeStyle;rounded=0;orthogonalLoop=1;jettySize=auto;html=1;exitX=0.5;exitY=1;exitDx=0;exitDy=0;entryX=0;entryY=0.5;entryDx=0;entryDy=0;" parent="1" source="f_I7BIO37TBJ3zswNN28-49" target="f_I7BIO37TBJ3zswNN28-7" edge="1">
          <mxGeometry relative="1" as="geometry" />
        </mxCell>
        <mxCell id="f_I7BIO37TBJ3zswNN28-49" value="Internet" style="whiteSpace=wrap;html=1;rounded=0;" parent="1" vertex="1">
          <mxGeometry x="90" y="400" width="120" height="60" as="geometry" />
        </mxCell>
        <mxCell id="sYxTYqJM8p4w1BAATTXQ-11" style="edgeStyle=none;curved=1;rounded=0;orthogonalLoop=1;jettySize=auto;html=1;exitX=1;exitY=0.5;exitDx=0;exitDy=0;fontSize=12;startSize=8;endSize=8;strokeColor=#CC0000;" edge="1" parent="1" source="sYxTYqJM8p4w1BAATTXQ-3" target="sYxTYqJM8p4w1BAATTXQ-8">
          <mxGeometry relative="1" as="geometry" />
        </mxCell>
        <mxCell id="sYxTYqJM8p4w1BAATTXQ-27" style="edgeStyle=none;curved=1;rounded=0;orthogonalLoop=1;jettySize=auto;html=1;entryX=0.5;entryY=0;entryDx=0;entryDy=0;fontSize=12;startSize=8;endSize=8;strokeColor=#003366;dashed=1;" edge="1" parent="1" target="sYxTYqJM8p4w1BAATTXQ-4">
          <mxGeometry relative="1" as="geometry">
            <mxPoint x="595" y="860" as="sourcePoint" />
          </mxGeometry>
        </mxCell>
        <mxCell id="sYxTYqJM8p4w1BAATTXQ-3" value="Turbine" style="shape=image;verticalLabelPosition=bottom;labelBackgroundColor=default;verticalAlign=top;aspect=fixed;imageAspect=0;image=data:image/png,iVBORw0KGgoAAAANSUhEUgAAAGQAAABkCAYAAABw4pVUAAAAAXNSR0IArs4c6QAAAERlWElmTU0AKgAAAAgAAYdpAAQAAAABAAAAGgAAAAAAA6ABAAMAAAABAAEAAKACAAQAAAABAAAAZKADAAQAAAABAAAAZAAAAAAvu95BAAAKlElEQVR4Ae2caaxeVRWGEWQUkElQoLRBUYwaRQOlZVQcopTBoiQqGodExFDFiFNUEon6xwE14A+DMwZR4/gDrSSAUSOJCFoIoSlSWyiTEKTYSsXhffQes3yzv/Od8es+956VvDl7WGvttdfa4znfvTvsMGw6WuavFv46h5/reYww0nbwwCq1+Q/hXwbKLhBGmqEH3qC2/il4MIo8dW+coT0LuqlF6v3DQuH8Sc+/iGfxgvbUjDr/LQvGVuVXCmcIW6zuSuVH6tEDz5Nu3zfYSwo6T4k4Y+BFZqSePPBl6Y0OX6f8TqGtJyh9k/FcHurHZIce2Ee6ON7GgJyb0H+W8SCD7Egde+Ac6YvBuFf53RNtMGPWC5EX2UHQjoOw8r9Gnm62fkN5NnQn9o1vWyEb/kgdemBX6XpEiKN+WYn+Y413s/K7lfCPVTU98Erxx2CwXJXNbuo2mcyrlM+eyjqVk/GnmjE/Vp7b+CSiDp5IK2JmTLfzgB9lfT9JaScAcVbdnGIay+p74EkS+btQOJfRf0AFNfuJB95C7nGl96wgN7JM8cCLVV84leftU/hjNbxR9uRYmWN6CHsIJ6ZIv4mZKekbrH6p5bPLjgHJLiT5G7ReJsZl54U1TH6Ryf6xhuzImvAAr0bi213SdS54XCjZzIuA1pWX6Gwp9yXrmXJHtPFO5f9Ww0WPiXdD4EfXM0I+u2TsbHbGyaBnmVF1TliFqMscWVTk+FyIAfEgZxWXMSBZheP/1+fMTPuPOb7er21gpC9ZrrOByv5Ecp8hh1jX77B8lazLuM4qOkYeeYDB4u+wdm7gmV0kE99pbZvT3UDVwhZ5mrpf3B943tfCHQ+YrgNb6OpVNOcl62DrOR+cmpLLuu6mejuXWygBucc8NwbEHFIl607zUV5FR8Hjsq674Nvuz5xnyEHmHR/lVl2adVnXXSo8y8qcA/JkcwQbc1O63wSz/eHckALCr9mb0iMm6MG26u2XHVJA3Kl1vOayY0DqeG+O153mTq2j0meX666jq1fehTpDxj2kwbDyUdxmhris625gXj8iuc4Q/s7DRzG/z21KvmShmzZGquABvuhdL8T3WKT3qCA7iQVZ1/cLlWX99XBSZ2ZVvosaukjgm7k7r80dpLD/roRe2qJN2h4peOA4pW8VPBDkWW5OFdrSaVKArlQbt6h8edsG5oM8m+sXBX6ek3LUD1V+qDCJFqniewKbNviBUPbNHF0/ElJtYcNlwt7CgqRT1OuNQso5LC8rp3iFYDyYkH9IZdSVEX+HeLeQanuDyl9SJjzf6vih2yVC/IpXOIZReqlQZZQyMwo5f35HddOI2cmMoE2Xp+wzArbOa3qBesd67Q4g/wdhmVCVWKJSeijzY26ZTvaONRN0Uf78MuGh1vGXsR8UHhPcifzU8+NC3e/lZQF5WPrqEKesTwrxZ6eFndj8fiHXO5tMq0d8G79OKDoYn+tU3vR0wwYedcX0VaprQpz27hCiriJ9rcqf2kRpTjInyphNQtGp+PySytv8RROnKTbwqJP0nwVOU01pLwleLrhe8hwEjhcGR7yWuFCIP+MpOnivyrkTdEGLpIQNnD0DMDPaBEPi/6MzlOKXLoXdxXObyt4jDObVC6eX7yc6QodWC9n+BEe2OfGp9xqhCEZ8MhCYTVnTEbLudiEaTppj5MUCm/vQCJs/IaSO6bep/Om5dmipDEtNcU48r87V6Bp28frmQcEHG3sWh4Gs6ExZw3/dcWN/p7LDs7K0nTGHSfwGwfu5VWVnt1PdnfS7pYolyY38usp27a6ZbDRxe79C8P4+rrLzt7eVXOjcMPLsF7M4hXBZe41wnXC1wDsqyvom+sZFMtX3j/Xd+CT9FyUMYpS8Y5JAh+U4naMzS6I7hVczbxJmcYB4q9rhGOw2fFhlMyXO4W7EZpV18d2irCME4rUCpxtv3/PcuN8uPFHok14m5dyBvP0P9Nlo1P2uROOcpI6OTB2nd5Y+RuM6wTs+Lb9WMm8W+gzMUun3oHBMfqfQK/GNgoaiE5gZy3tqdR/p5cXeRiG2GdMsGV+bQ2r5KHj/JJ73Clxc+6ATpPRRoWiPJ77ixt8LPUdacX5scIvyJwtdE5etLwjeXmybNK9mDhMKWqxE6nVNlOMt8SXCEqFreqkUbhVie8ycI7tuiCXjJmuI0fiKjhtilPHaJXWMjp0s0lzUnFKXt4I/PjmA8PpjmStomWcf9UFxo8rwYWfEqSF2hnRX6+O+0rVK+H2ijdjmetV/2ngoc1qvgij3WeU3WFmsJ43DzhO6Ws4uSLT3IZV1QvtLi29YV7bUzDn+JOEKwae4O4uj7esFNuWjhFi/RnknyiIPMozOc4SbrS7ykeZtw1eF44S29F0piPo5+OzXVinyfOmLih9QniA1Ib5hfERIvYCMbbAZXi2wJkc6SZnI96tYOZemLPIgUxAD4eXCasEPJ1GG9K0CB4rDhSb0FAnxnivqfV8TRS7jHayr9NlS+FFh2pKE4cxENnMCl6IVKowd/GmCibLIg0yKsOsyYbMQ+VPp34qHgclhow6xTEV9v6wjPIn3HlO6eBLjXDkjY6XwOYFbczRoUvo28Z0v7CWUEUtX1MGm7ERZ5HmdM1iefYM1f60Q5SalWUI/JZwm7CuU0RJVRj2bypipY12eRjsZA5vfzwSOj3sISwSOnjyXC4w8loZpxJkd531FSC09KXkPGKPbycv2dgbLMysZPJ8XThTeJpwl0LcUHaVCcKHAsseg+7Vwp7BR4ACBDewXpwuR3JexrnL6J+KMUW6T5qh5rfAWYU+hLuGE2D73CSfKIg8ydYlZc67AElP1CB7bnJTGl63pGGnYJkxqZFo5QbhG4KXjQUIbuljCsT3yTlV4XKYsf4gqVwnXC22Cw93kWKETYr28W4jOmJQmADcKjNQzhf2FrqjK6K8yi5rac6AEzxYuFdYILFmT/BDL7xMf++pUqrKHoISpxihnUz1BOELYXWDEPCTcJXCUvUVgP2Bd7oN8P9icaMTLXCYhUrnofnGy7wHoAOF44bkCr0eYTewd+HWLwEGBZe+bwqPCvCMcEUde6gTFoIk8Vw3JCzsOyVjZ6qPdZwPd8TKXybrLQwuIH3s5ejt5mcs4f1b5oQXER7vPBpzrZS6TVQDcmKEFxEe7zwb652Uu4z7IKj+0gPho99mAc73MZbIKwNCN8QvqbokOcRyPpyxkRurBA3UcXSVwPZjYXuWQlixfenxpit7wS5jLRt6s0kMKiG/OvnlHx3qdy0berNJDCoiP8rIZ4nUum1UQojFDCoiPcp8FsV9e57KRN6v0kALio9xnQXSs140Bid7pKO1O9VkQm/E6D2bkzSo9pBniAfFZEB3rdS4bebNKDykgPsp9FkTHep3LRt6s0kMKiI9ynwXRsV7nspE3q/QYkKzCMZs//+qqy77s+LIU2/E6l428WaXHGZJVOMYZklk4hhUQ35h9447O9TqXjbxZpYe0ZPk+4PtEdKzXuWzkzSo9pID4KPdZEB3rdS4beed9eoV6WPVXjvHL3tDS9JE/X+uUqvxKvW6DGHpwXaGB8tPXQ7u0fUhLVpf9zlZXHwHhvydM/cOUbD1S3TBmB33tlP4NfmBYg9i6lXEAAAAASUVORK5CYII=;" vertex="1" parent="1">
          <mxGeometry x="570" y="780" width="50" height="50" as="geometry" />
        </mxCell>
        <mxCell id="sYxTYqJM8p4w1BAATTXQ-18" style="edgeStyle=none;curved=1;rounded=0;orthogonalLoop=1;jettySize=auto;html=1;exitX=1;exitY=0.5;exitDx=0;exitDy=0;entryX=0;entryY=0.5;entryDx=0;entryDy=0;fontSize=12;startSize=8;endSize=8;strokeColor=#003366;dashed=1;" edge="1" parent="1" source="sYxTYqJM8p4w1BAATTXQ-4" target="sYxTYqJM8p4w1BAATTXQ-6">
          <mxGeometry relative="1" as="geometry" />
        </mxCell>
        <mxCell id="sYxTYqJM8p4w1BAATTXQ-4" value="Smart Hub" style="shape=image;verticalLabelPosition=bottom;labelBackgroundColor=default;verticalAlign=top;aspect=fixed;imageAspect=0;image=data:image/png,iVBORw0KGgoAAAANSUhEUgAAAGQAAABkCAYAAABw4pVUAAAAAXNSR0IArs4c6QAAAERlWElmTU0AKgAAAAgAAYdpAAQAAAABAAAAGgAAAAAAA6ABAAMAAAABAAEAAKACAAQAAAABAAAAZKADAAQAAAABAAAAZAAAAAAvu95BAAAKvklEQVR4Ae2b689n0xXHFVOUeQylr3iDosaMNOKSJvWCuIR2bqaIRCLhn2hKXylqLuaWvhbEC0GMuLXqddu0gxl3IhNDCAmZmxot2u/nmd95LGvO2Wefs/fv8vxmr+Sbs/fZa3/X2mv9zt777PM8RxxRpESgRKBEoESgRKBEoESgRKBEoESgRGC0EfhBT3ML1G+5sEK4UDhdOF44nGW/Bv+hsE14Utgq/FcYupCId4T/FQRjQIyI1dDkSDHfI5RExMfgW8XrboHYZZeSjPhE+B8tSckqPHpk2xr6UvX7hYuFw339UAhmY0AsNgjExsaK2C0TsggLuF8z3te987OwTyfJEg1rl2CTQgyJZbKsFoMlJvslGe1hJSkHXOyIZbI8LAabEKapInER2Cg1G7uH4rqFtd5ypBeF1UuricAlLnbEMln2icFm+YRkxsOHgFjZ2BHLZLGElCdFFssRps/XBN6SAeX1wnnCpEj2+GUnTIzUD9V/s/C14H2r6rSx/cyyqxFPilQ+VdcUrtm+FVF1TSZMICAZLwiVL23XP0t33EnxPiYM/2DX7IQJHvFkeH/a6jwp4xTvX7Iv2Ql7esSa4aep13WPN+CFA3Ci8IZgfebE9WfCuMT6QjlZshP29IgF3PpCMmZquE7UvTed7roavVHdsj5PVUJIgB0cT0OTrFSD1X21SXEE960fU5WQvS7ITFNNwpNjA0HfcYn1ozUhQzmnH9LIU3xN6Tuk4dTTzhtH5T4nzFYutxVXvsLVd7r6vK52euSGOFJ/UMduigXcC/f8+dv9XmmE9ezxy07YMxhsXb8RrD/spljAWTMAZZ8MtsrnCOMS6y/lZMlOmODRevX1/rTV1ybYy9HV+5fMmZ0wwSOOQZ4RvE9N9aekW45OEgIe0/VoKd0n/EdoSgRt9wrojlu8j8n+ZCdM9uggwVm6EHTvH/domxTx/gX9ivnLRQitxPSx+sMuT5V/8+k9ZNiJnQj+YSaE09lNAl/xPh9gx+DefPirFXzk3Wf7wHfGwJkY98Z5enzIHC1/gnKMWrcI/p3BzqW0oYNuqlheP3314cYnvru0+U9iYvzP7V+nhODgi4J3oqnO1z++AqaI507hwpe/Cp6zqR7jv++b4t9s3y6Ef+owmIo39YtexVNdUwaMLxVP7JWnKSSeJ6Qb1RZLuFRs/jHnaGOFwFE5fxKzUvBHG3zRO0foK7H+tfGzLvgvkvi/SsD3mUH5bV2tTcYcWhOtLuVkiSVkAbe6OP7jGuuLdM9/0eNFr69YmykD5qui5eKDWN3h5Sm67//WmfWkSSxnin9z/LGE29XD6t4wx3Bo4Sanu+1QleAd5nqevAcFa5My95YLXY9MXnZcv1G9SW5Ug7X7SpOi06NPsljDIcL9smR1Q1/0eHKsLlvKWLlain7as1xVmafwylhS6e0Rqr5ceZKbhDaru7dJ0enRJ1ms4RChT0jof0b8gP4tL2OOO34nPe9PqM7/Zfw2IgLYxgfLxZrRJLRZ3YlMCI+tdXJZ02h0f7XTrfrBcadQ96egv2/oU/UNXe9QXy/YwJb3u+JhMW8SNieVHtfQlGv1KCdLLOF6WbK6fHI9tcb6T3TvXadr+1Vlppy7hJ8Llwl+B/Sl7vEl8GKBpxFQ3iDQVvFwpe8vBbjghNu215WZFk8SvOD/LsH2WeOVTN3qUU6WWMK6bSM7LZ4Gdis85vzqPhA8Z1vdJ4Nkh7aaS9Tug+Y52mzSTuLYgJwssCZeL/gdFrznCk3i7TTpRd/vQrhOrF6/rf64+rwoxAaMX38oGWqeFZJyQGizTzu28eGJSH3LuVZ9QmJ1KSdLF0K2o88Kvk9TnQAcNfDwFF1vF54TvhKa+jBNxcpGKTbxYANb2MQ2crSwVWjq4+8z1rajH99HXdKkKyHnWawn3wi+b1Xn7fwPQpUMFb8ni1S7RXhS8DwXfU8zXLlEzZVNrnDBCTc26oSk8JELH21fW4aH2YCxtontRzlZ+hKeLcsbhB3CbmGP8JLwR+EMIVaYoqwPJ8R2lN5C1xeuWDlTiizWvDDuFfD/VYGnrstRj/V9rAmR31lkn1jsoLokZMb1JbCjFut7a0KOHLV3Pex97PrUvaM4lbmq1/Vcc4qTUpgPCfm7C9bNrh6qet2/hZTnS1unR24Ig1olTusD6wBb2ja5QAp+27uirdMQ2q3vrVNWjP3shDFGjQ47sTcF6wcvhqGkLFW7fzHkOL1pV6emoYn1eyoSQqSuEfz2l18/O55LBRZ6QHmT4J8M+nY5+ZV6NpnKhBCdzYIfXGydvuMS72OyH9kJe3jEr9+fIXm/QvX31J/ztHGI9yvZh+yEPTx6WH28H13rj/awm6OL9zOZMzthR49ulb73YYvuXSc8ILwm8BYNKD8gXCug4/vdqnujFu9Dsv3shB08Oku6vF1bHzi+OC6C4xjpcFRj++5XPXRUHkHbWcXap5ws2QkjPVogvX8I1j4B5btLrPxUij6h23SPZI1KrP/zOiHrFTE/mNt6RPH2Gp51PXj6dvFj6Msz1y874Rxzc4H3Dv5Awdp+rFm9teURxwX3r1t75VGwY6CcLNkJBx4t1vVeYYfwicB0tF3gyaBu7e5Uven7hZpahb5wWE5s8LEL+18Inw7K+OQPJXWrt1iblJMlN+Fx8ogpI/aTLR+KfpE8ioMcoY9OdpzorRWOzWDX8k5cQlionxG8k6H6HRmCUlHAFbLl256WPj6niOcMco36+J3piHeELrKwi3KLbte3dd518HmipFOGA54vVZufpjjFXSZwNMI8f4Pgj0joc4aQKmyBvX3+TOl6gUQdL+DLW4IdM33OF/qK5aKcLLkIWUAtFwM/uca7k3TPB4WFNlXWiMDaf0P1uo0CPpEoq5uyTbY8lJMlFyFv2JaLX2OT3KIGq/uvJsUO9192nL8K9F3pdNn99RU7DsrJkotwnzypuHgP+FHAsxmjS5/PArqxTbsdZ8g+61blK9c9sUZq9CwP5aCMclFnLq6k7X/dWx2viDpcrc02fquLCT5wjURGmZBdbkRXuLqtXmkrKvPJNlUsBwG/KkDop1Pve6Dr8Js6PXIBdzaozXKxw6pbVFnU/aLKhiBVNonA2scGtrzU2Z/KRf1cjZxH3waF3dQKgS0nWCn4ZDDVLRZSZYkI6uyzgWDNYOu9Sqizz5a5r9jxUk6WnIT+V+q56+qbk0fwHcEWFetshO6lPp2e+ztvepZyEvId4oUOQXleum1/Xd5lWHD9ZcT2c8Zvdqy5CQkKv3r/1mztMLXwy8yZDNHNCj8K1jM/fVn7HC7yNOewb3kpJ0t2woFHrAssltuFvcLnwksC91LmbHWPkrOlhS1sfibsFl4R1ggTffxOsGxSWPyKxEVgRmo2dnvausW8h3zkSHL+ehz11FV9rD5uG2FMQvw50s1tpKV9LgI+Vv+ca0korFZf+9jF/vV5gsmp6HqBRnHAxY5YJssCMfhvFBxDLElmnl6CpRoaxy32h0wMiWUWWS4W/1cgZH+jcKlQFvrwX98Tu2VCVrlHbDbjpRwfj7uzZmJAxgYAYv+klMQ0J4ZYEbOYzZPU+gmPnl9TSlIOTQox6jxN8V2gj7A4sa5wUnuhcJpwuK8j+xWDD4RtwtYBOIIpUiJQIlAiUCJQIlAiUCJQIlAiUCJQIjDREfg/4XDqwH1X048AAAAASUVORK5CYII=;" vertex="1" parent="1">
          <mxGeometry x="570" y="910" width="50" height="50" as="geometry" />
        </mxCell>
        <mxCell id="sYxTYqJM8p4w1BAATTXQ-24" style="edgeStyle=none;curved=1;rounded=0;orthogonalLoop=1;jettySize=auto;html=1;exitX=1;exitY=0.5;exitDx=0;exitDy=0;entryX=0;entryY=0.5;entryDx=0;entryDy=0;fontSize=12;startSize=8;endSize=8;strokeColor=#003366;dashed=1;" edge="1" parent="1" source="sYxTYqJM8p4w1BAATTXQ-6" target="sYxTYqJM8p4w1BAATTXQ-22">
          <mxGeometry relative="1" as="geometry" />
        </mxCell>
        <mxCell id="sYxTYqJM8p4w1BAATTXQ-6" value="Internet" style="shape=image;verticalLabelPosition=bottom;labelBackgroundColor=default;verticalAlign=top;aspect=fixed;imageAspect=0;image=data:image/png,iVBORw0KGgoAAAANSUhEUgAAAGQAAABkCAYAAABw4pVUAAAAAXNSR0IArs4c6QAAAERlWElmTU0AKgAAAAgAAYdpAAQAAAABAAAAGgAAAAAAA6ABAAMAAAABAAEAAKACAAQAAAABAAAAZKADAAQAAAABAAAAZAAAAAAvu95BAAAGSElEQVR4Ae1dScsdRRSNUxyCG0FjHLJwQkSjiIjzwpiFIhExiegqLgTFGAX/gjvRjSKKKOLOuHGhARVcRI1jVHBaOBCj+ZzFWeIQPUe/iuc7dt7ret28ru53L1zq3qp7q26d+6qru/q971u0KCgQCAQCgUAgEAgEAoFAIBAIBHqKwFrE/TV4J3h1T+cwmLD3wUy+Av81z7tQrgQHdYjAFxg7JYTlD+AVHcYz80OvAQJ/gjUp70FfMvPIdAjARksIk/Ngh/HMzNBnYKbrwUdWzPh+1Okq2Q39wgq7qGoJgUvQzx9ggs6N/BSw0sFQ3gJrUt6Evp8ahdweAveiKwX7Y+hLrftzoXNlqN3VZhNqSwhca0AT9KfB+1r/D0PXhGyz9lBbROAhA5vAX2/9Hw89XdpSYs43m1BbQuBA9LMVnIBm+SX4ULDSJihqc482hpyPADfwu8HrKlyXo+5XsAJ+m9ldau18ePRLm7mEujcE+JStl5xbKgzvQp0m5APoPEZJtD8EPVKh7empMco8BK6DuYL9O/SLrIsjoPsqOdtsHoWu/dxs7Z2rfVmyTwGpbwUtftrvBOsK4L7xrNhQXGX6FtPPNL1ztS8JmQNSPFLn+VSisyA44JtT43x5nul8SFQ6UZWQ8xHwW1y/U+KeoJekD22IZda+09oHpV6B2fCywbuX1RPMrI4/n7oV8DdsnMOtfZe188hE/X+29kGp/LSlyX46wczq+POZY7eM87mNw0vwb9LOeBabDZOQ4mRfgz3XSpNMpeEwVk1+qaxy4GbOfSTZfGNG3k471ikVnZC+bOoJ0JMhaMyfpYb5kre+2v4LdD6/JGJyDkkKSt4m642CNHUjavDdRJA3Kg8TlV5XBfJy07ebzoQpfadKCXKfEnISANtooD1p+krT3zXdb3M/svbO1b4khJv542B9J759vg7FHrpsj/Sv8Jzpp5n+vumDUtNGm8rcySW/VKr/WiipPpV++eL+ouddtDtBO4H8GDj5s9xg7YNSdaKUc2mU/wXoTNvvq+h8k9m8bDYHQOeX57SfFWYzKFUnSjmXxvnzIPAZ8O1gf7Y4B3X6fMK+rgEr8XKmY/AZpi+XbJ1HbVknSzmXJvVfioF2gNX/Hej+/OGXK75bGTQpINNKCEHfAvaxVxnSvLvy/WXwr3AdFMNkrDqJ/03o1f38wJEDP2J2r7Fy6OTA5M53Ev87MIj6PQ/9IBuYR/C+v/CubfCkwFDOpUn8+bDI4xP6vgQ+DKzEY5K3wdo3n+4HvZknAHTSlHNpUn+Cfhy4CuQHUK/9cqXwFnomSCc+zYTsDdxb0eAxMUEzQz753Ik39dfxroSix/Tsm+daS9Ro6HJTQJv6K76fQNH+vod+qhrMgqwAUM6lpv463hyU1B9f416sjbMiJwBSmTvv5JfKXH+15/v5HWAer1+uDaXL+r2mprESSKXcvpv669i9latuFXs7mSEEHgkpLIuRkEhIYQgUFk6skEhIYQgUFk6skEhIYQgUFk6skEhIYQgUFk6skEhIYQgUFk6skEhIYQgUFk6skEhIYQgUFk6skEhIYQgUFk6skEhIYQgUFk6skEhIYQgUFk7OCuHPyDaA+S3zn8Dp+1OpRNUCSvV1ywXOUOr6lWpHjF4E8zcs/hM8VDWjo+DOr/GXOvnS49oG7JY1S8F/3sxuJKP5h5G/2uIvgRsTL1OlfwL7Et+NjbOBDrhn6ISfgH50Gx0PvI9jMD/+6Q/Fbmsbc/7ROuVAQfUQOBZmmhD+H5ORVOcL0exQqY6P2s+6nIVfzm3vrAM7lflHQqYCc/1BIiH1sZqKZZsJWYeI+Ztx8pqK6Lturwipn1V6l+AblM4o/YCfNnPaMC933V4R0lSq6uL3TzBtrpCpzC4GWXgfPWqF8O+HcGWQr6oAruv2ipCmUpW1Quo8U3gS6vhMZaY9GSQLv7hkFZbVSEgkpDAECgunzgrh4aJSHC4qGqNlHi4qOZbaVlv243ceKUdSxsPHZGwG611WK8fvVX/XUAcJeSHoo/C4YXwex1sshgnfCY8aKNrG4/MKMGzlFS5Txhf0fCccwE+GwavzGKJoj5hdvhN+AexvESNR/08UMSJWvEy1tjLQV1AgEAgEAoFAIBAIBAKBQCAQCAQCrSLwN7QKeOesis6eAAAAAElFTkSuQmCC;" vertex="1" parent="1">
          <mxGeometry x="640" y="910" width="50" height="50" as="geometry" />
        </mxCell>
        <mxCell id="sYxTYqJM8p4w1BAATTXQ-13" style="edgeStyle=none;curved=1;rounded=0;orthogonalLoop=1;jettySize=auto;html=1;entryX=0.5;entryY=0;entryDx=0;entryDy=0;fontSize=12;startSize=8;endSize=8;strokeColor=#CC0000;" edge="1" parent="1" target="sYxTYqJM8p4w1BAATTXQ-9">
          <mxGeometry relative="1" as="geometry">
            <mxPoint x="995" y="850" as="sourcePoint" />
          </mxGeometry>
        </mxCell>
        <mxCell id="sYxTYqJM8p4w1BAATTXQ-7" value="Electric Meter" style="shape=image;verticalLabelPosition=bottom;labelBackgroundColor=default;verticalAlign=top;aspect=fixed;imageAspect=0;image=data:image/png,iVBORw0KGgoAAAANSUhEUgAAAGQAAABkCAYAAABw4pVUAAAAAXNSR0IArs4c6QAAAERlWElmTU0AKgAAAAgAAYdpAAQAAAABAAAAGgAAAAAAA6ABAAMAAAABAAEAAKACAAQAAAABAAAAZKADAAQAAAABAAAAZAAAAAAvu95BAAAHZUlEQVR4Ae1dW6weUxQ+FG2dVpVKBdXTU+EID+1pivIg6laqiQpVjcTtTSW8edEXIdG0HhASSkkRD4i4tw2VaCTSpiVuUa1L6tajaAlxqeL74h/ZZ85e88/Mv/eaPfPvlXw5e9a+fWut2TN79uz5T09PlOiB6IHogeiB6IHogUZ44ABPVgyi3QXACcCxwGFAE+RnGPE1sB14EXgHCFYY3EXAx8A/XQLaejng68RG0+VkEqptALolEGk7X4PtR5Zznfta/WjyUyBNstuOd8AH09y7t1iL41H8PaDbnC/Z+xF8MaGYC92WXhODMeJkXN2Jizu5Gc1Ax1uAAwUC+6BfC2wFfhPK1E09FoRnARcCBwvk/4Z+JsArh6o8id6kobsJedNV2eh2xun8ZkCy/3FdOj09h6DDvQIhXkeb8tyR5VfaKE3xf0SeNIKy2iyddyZqSmfHRaVbrV/FSzL8cEYZcw4qUwl1pgj19kC/XsijejJweutvJ/cvtuVbeMINAW8D3wmd8R75E2CbWR0PPeuqyM3oxTZC3hV6Hwf9I8B+oZ6trVB0f4HzwwBtsAlttnGljwpL2RHCe4hN/rQox0DHUTPHklcH1SiQvAEYAM4F/gBMsdnMfMlHZt0RaWnKOqJgB4pbULeuwTDNPgsHpc56s5F2aY2AXNeORI3yvdviOyC8JHLO3hQ5EYaUvczn8oHXxsFgNCAFne8V0tfjXKQVCpE33+OkhbYwjzd6L+I7IFmkFyKTT7shymyQ4mqDukhnrzqR2OF/HogBCexMiAGJAQnMA4HRiSMkBiQwDwRGJ46QwAJS5XPIGvji18D8kdDpTRLaf30HhCuhXJq2vfvg6mndhO/LpdVdJ7b4vmRxo8PnTpiG0chnoEGbvInvgJD4E97Y6zfs3RaNgKyA397X953zHrmtZ6XzVlMNagTkF/Q5F3g+1XedDp9r2eB9EuL7pp44/XskLgVOAvjm7SigDrIbJN8CtmmR1QpIYg8NUzMu6bROfzUuWXXyR+VcY0AqD8FwAjEgw/1R+VEMSOUhGE5A+6bOJRQumdg2EAxnVvzoB1Th806RDQj8DO1UQNoYzY0YyYZqJP2LZkAmwpxngLkezfoQbXN6vSNHH0tR5m6Au0iy5HVk8sPOvVmFXOVpXrKWg7TPYNAnpwCPMtFGBpF/L9AuGGyG20fvYkJDNAMyT8Mg9MEHz3bfp1yAMkVsV/vEogipTv2pMuRBkpvv2n1CV5TLnk6Nz1tfMyAP5CXVYbmHUL/dEvmzKCN982HrXou7332qKcsexDFfVt0ISB/8pKoUOuR62VPAnTlqcY3qbGAFcBogzbK+RN79wCpARTRnWQwGg0KEIJzOLgiBiMlB85Jl9hvTggdiQATHVKWOAanK80K/MSCCY6pSlw0I5/o2GWtTNlwn2Sz5KNMdZQPCXyqwyTQox9gyGqpjMPoF27jYWVjKBoSLeDbphXKRLaOhusWw61DBtg8EvRc1n1/4IMZnizR2QTcVaLr0wcAhIG0/j/ngOQpQlfvQm40MdXyPMF+VjW5nfKD8BpDsv6csHdue27xtTUVBPu1m3TO+QP5WgKOpCcLtSzOBvgxjfkcetzvtzCjjLWsZWpbOkm7V3+bN2zka5nXy1RiU/0/Kl+CLshOlHO7OV4SzjLVAt46IxG6emNIzST5POizFkXIHkHwPkpDshr98ALwdUJ9Voc+2cjFKdEMQTBtpszNx/T6E829JViOjyBYdqZ0q9PTT9ULHWTYLVfTUs9GVefaY6V49Gs57InfTFjNNm51J5TMCZ5Y0pKEYkMAC2ZSAcGsqUXupe0AYhI3AVy0wfQwQpeUB7Zv6OvRr3mCZ5kOqa4k39RweHY8y51nKnQ/dOIu+FqrQLllF+PBTAlt56ibl8L6tbo5qfouEQuoymLkN4DLEJoA/R+5LOIL4zTn74l/bKIO6GVLmHjIHpvMJ3rwXcHNzu1lTX6qOWZ95NjkZSm7ENsvyeMBW2NB11T3kGhieXpg7HLqFhkNcJZegofQLNR5f5aqDTtsJ4ZJ1nGAE/7uAa9HsqxT3EAJSinhTK8WABBbZGJAYkMA8EBidOEIaHhC+U5ek1H+ckRpT1mdxz7K5ME3XI2RXBoP+jLzQs6ZnEPw2I69wluuA7AYD7tyzyZU2ZU10iwWefMqnzc7EdUD4M6obBHY3QT9DyAtZza2jSwWC/NkNLsM4E9cBITH+PqFNuIlsPcBfUaiLzAPRdUB6uSXhL9ma5Bf+28lma6kzOv4TQFqmYL3NwBsAP/y5FhgA0vImFK+klcbxRKRvNY7N5HIc2H594QroZ5kFW+kt+Pu0oT8C6XOArB0lO5HPTdXSJRpZ4QgXDDmUm4yrw3F3PiarGhyQx/K5IKxSo0HnZaBpo4Q73LOeS8KKQooN33OsBPYDdQ8MbeC9Kf3uBqr6ySAoc7bCaXHdAkPO3MmiMmX3McsCd1GmIIff53GmczQwGQhRhkCKqw6cfb0AcN9XlOiB6IHogeiB6IHogeiB/B74F3wW7BbYDTewAAAAAElFTkSuQmCC;" vertex="1" parent="1">
          <mxGeometry x="970" y="780" width="50" height="50" as="geometry" />
        </mxCell>
        <mxCell id="sYxTYqJM8p4w1BAATTXQ-10" style="edgeStyle=none;curved=1;rounded=0;orthogonalLoop=1;jettySize=auto;html=1;exitX=1;exitY=0.5;exitDx=0;exitDy=0;fontSize=12;startSize=8;endSize=8;strokeColor=#CC0000;" edge="1" parent="1" source="sYxTYqJM8p4w1BAATTXQ-8" target="sYxTYqJM8p4w1BAATTXQ-7">
          <mxGeometry relative="1" as="geometry" />
        </mxCell>
        <mxCell id="sYxTYqJM8p4w1BAATTXQ-8" value="Grid" style="shape=image;verticalLabelPosition=bottom;labelBackgroundColor=default;verticalAlign=top;aspect=fixed;imageAspect=0;image=data:image/png,iVBORw0KGgoAAAANSUhEUgAAAGQAAABkCAYAAABw4pVUAAAAAXNSR0IArs4c6QAAAERlWElmTU0AKgAAAAgAAYdpAAQAAAABAAAAGgAAAAAAA6ABAAMAAAABAAEAAKACAAQAAAABAAAAZKADAAQAAAABAAAAZAAAAAAvu95BAAAJV0lEQVR4Ae1dXahVRRRWS00CsyDKsM7VwpJ6EMIo8iXopayesh4yosJ6jOihEhOhXiODeizKCqOoF3tSA5WgJ0OEIEi6+FfZH5KWZWV9n951WHe15mefs8895+w9C5Yzs2bWmjXfzOyZPXvOddasQgWBgkBBoCBQEGgvAveg6UfAh8Fr2gvDaLR8Ndz4A/zvFP+J8A5woSEgsAx1HgdLZ0j4E2TLh+BPq6u8DK3/CiydYMODyLu81QjNYOPnoq5PwbYTbHovysyfQb9aWdVstPptsAV/K2RkK2dZ6hQaEAKbYNeCLjMhNHNeGJAvrTf7ABA4azrErhXe2kKdh1uPXs0A2O0tZ0loN7UMeXb3VbbDNXZILwCzA0+D9eMt1IE1utp8U6FH0LqMpuc84jLMlCKCQB2LdGwTIPWUMAOB0PZ2G3SrbGNZ9i2wfnQxXtUOVNpNdY5szrRdYNsprGOs6W54/w3YNqyk45gQs7tye77K9OcR95Jcw6XcNASO5WI3Z5paSQwdgSod8gS8nRy6x+PnADFbPxNu27WDdXbAO8E2j+nfwM+CU4PA06WM034puCpdDYXD4JDdmD0+0jkQfw3o74D8GjDJ2j8vncF/Qw6kGrEXPl4X8dPa1emD0Lsyomuz+E0k9t2EtkPUQUZscD2FfL0Gaz9jdkP19S1POZBqUGi2WLs2fQCeX5rh/UKU2Qe2+jZtTfU6oFJ2bT21p3McYOOeBIemPEdgx3hm7b6DfCvjLFtg9HSSeSxj9TxbWo++hGYF28C26FmhdW1dOm9G4pOoRZzgXjtGsYbatUVsSngBDH8ElrSE2yHjS5+lVHnRl5D6vc4KXfckEmIzhYfWqy3Ol52jU5zz4pOaLXybngBLoySE6Nxs8Eb8VuTpEcs4ZaIrIXVlRolMwgnkeW/yzE/NChTpUlU8uorDjnTgQOyxIEBJKP4uQmQ/WOQSbpECCBkXuYTUWaTKiFzCKo9TZaZZUY7k2HZSwGKoKbRr4mfaTWCtx7i3K7NlbNo+QnX9jY930MLQbBGgLAhLIeA7ieSHwtB7S6g85d4mw9bf+HRqtngA3Ajhz+AQuCeQt9JTDOi0elYEcAq+5YfK34KMkw7ABHd1SMkpzwU/9qIaMdX8LM4WO+pDrb4NGaec8pQxL0TWPussFEHAAuYVvQnCuh5Znv0iUwikOqTuRV1VXaIeArEOCW17N8IQt75Wl9vexaYSW8Zkl6RFIAQYDwu/ANv815SBl538A5Dpw0irr9RL1EPAA4zHHnvANu9dyOYoI1yg33TKfQ7ZxVPlrI0pcQlCCFjAeID4CdjKqx4u8mPSPMcORIViCFjgvSNzfVjo2eKMYpkcW55+kSkELIg2bdcEpTot2usHqmlGSuL/o1p3iHdYGMMstCvTNmP6JQ8IaLB0PHRYmAKtn0sOKdtDzS83F8ODRQ8cG+fXQ368yqIq5zhHYHFJltVSyCLA2Z2Fnd7DWyMlPQQEqnRIubnYWwdNQm19b6rVtOyzktodcOgLYO5HIGtX0sdhezkrqUjLUP5bsNixYcwcH+kciKHv7uXmIsCxh4UxQPvZ9nZgODa4ys1FAMTRXeXF0DuMTM2Q1KzgCYD3hTFlF2qDpRwH2Lhyc3Gw/dC1PomYdErqpl4HZWPTX9/zFZsShm4i8sCRB4+WWP5jsOhLKIeRkpaQ+r3OCuoKTSIiNlN4iE6tIV92hn1zkQePBFOIccoEGAn5mOGBI0lkEk5AtsuRM5+Leew+L7K7VBWPruKwIx04EJot3m5G/OXtw/1gAVLCLVIAIeMil5A6i1QZkUvo1ck8+thReo2Oph4RAhZDTaFdU7m5qFHqI84RGJot0inW/FIIeBQh+aGQZVjWUqg85a2aFRYYSadmi5TTYbm5qNEYULwDu95sCVVXbi6GkKlRztliHykh8+XmYgiZmuU5HVJuLtYMesxcqkPqXtRjvpQ8IBDrkNC2dyP0ys3FAQ2fUIfwFol3WFhuLg6oI8Ss1yE89tgDtnnezcU3nHLl5qKg20NoQecBYujm4oWO/dBhZLm56ICVI7Idkjos9GxyRvFAMceWp19kCgELok1X+UC1z+kUa09VXaIeAhYwnT4IhZn64zOeb62U6Q7Q8dBhYQqkxt5cTDW8rnzdCRI/AeMr+6ggdhjZh9nmq16PJkonSMjrQ7Ff1eaiQhu0JXYlZJ0jQ3NGxpPz/9fHNsef+ZBd68iriniVc56j9CFkFzny1ou2AAEZtTb8G3nr+kBoLXT/ith/pQ/bjVTlBYGzEcDYQb12SqozaJt13wcuBASuAv8A1rOC12jWg+2oZvpBcC6xrGeDtlmHrpM+0JdWE9ewnWANDAGURfx+xC2guTPFmxnUfQhMWgU+A9Z170aaRy+tpefRcg0I45Rp6qVTUp0h9jcgYut/TjLbFlYZoVU6JbcziHdqhramTy5BS+0z/EfIYs/wnE6p0hkC9hWIfA/WM+UQ0vqvP0jZxobvGQBydzmxTumlMwRgb5f3gWQ2PXzUdAZHJt9Bcim0c7KLP9NVdmTeexB9bTTxdxX2Li2P06u+KXszRT9y9G4qF1CeCNhPxKcguyHXwLiVq6vBK9DwF8GxP2DGPJZh2SpE8NkJunPZSfS9ceQ9Eh7LbCUXe/6E7DOwBisn/iV0NoMnwDn0OApZu407WvEWTR7qxWgBMrlQ84c2dn2wgOWk/4Eddih/xLkQHKNeNx0xmyOTx9HtHY1w62tpLgT3gt8H/w5OAc0yLEudXvVYpyVvW96Io5XcF6+bgcir4OPgVCekRnrVmfUL6twKvhM8Gyy0CpEzYO3PbqTH+mhlg2kQGydHI1xAN4O/ButGh+JV1wKYPfeiWWXtOQwdDoyVVAbF/D9fYoz+vRW+2hFGUJ8B7wOHgNdyvs2/BF4B7pdog7bsCYGuT8fpI32lz1rONrFtY0XeM1g3KhYPPULqBKDKI9Lz9RCcGaujFbtL8RqlZafRwO3gtWDvMyvEAyGuB1w7uIacBGufUvHULhHmRoN43JBqDPP5Nr0D/Ag4tQ1FkYETfaAv9Im+5bSBbR15OgYPY43hs/lp8OIRbgl9o4+pte7oCLeh6xqdtB3ChbSXo4yu0SFGuBmg795m4MgQ/cqueg1KslO+A78Ovh2s9/dIjiWxDWwL28S2sY1sa6GCQEGgIFAQKAiMBAL/AcbJk/XKLoCyAAAAAElFTkSuQmCC;" vertex="1" parent="1">
          <mxGeometry x="780" y="780" width="50" height="50" as="geometry" />
        </mxCell>
        <mxCell id="sYxTYqJM8p4w1BAATTXQ-20" style="edgeStyle=none;curved=1;rounded=0;orthogonalLoop=1;jettySize=auto;html=1;exitX=0;exitY=0.25;exitDx=0;exitDy=0;entryX=1;entryY=0.25;entryDx=0;entryDy=0;fontSize=12;startSize=8;endSize=8;strokeColor=#003366;dashed=1;" edge="1" parent="1" source="sYxTYqJM8p4w1BAATTXQ-9" target="sYxTYqJM8p4w1BAATTXQ-19">
          <mxGeometry relative="1" as="geometry" />
        </mxCell>
        <mxCell id="sYxTYqJM8p4w1BAATTXQ-9" value="Smart Hub" style="shape=image;verticalLabelPosition=bottom;labelBackgroundColor=default;verticalAlign=top;aspect=fixed;imageAspect=0;image=data:image/png,iVBORw0KGgoAAAANSUhEUgAAAGQAAABkCAYAAABw4pVUAAAAAXNSR0IArs4c6QAAAERlWElmTU0AKgAAAAgAAYdpAAQAAAABAAAAGgAAAAAAA6ABAAMAAAABAAEAAKACAAQAAAABAAAAZKADAAQAAAABAAAAZAAAAAAvu95BAAAKvklEQVR4Ae2b689n0xXHFVOUeQylr3iDosaMNOKSJvWCuIR2bqaIRCLhn2hKXylqLuaWvhbEC0GMuLXqddu0gxl3IhNDCAmZmxot2u/nmd95LGvO2Wefs/fv8vxmr+Sbs/fZa3/X2mv9zt777PM8RxxRpESgRKBEoESgRKBEoESgRKBEoESgRGC0EfhBT3ML1G+5sEK4UDhdOF44nGW/Bv+hsE14Utgq/FcYupCId4T/FQRjQIyI1dDkSDHfI5RExMfgW8XrboHYZZeSjPhE+B8tSckqPHpk2xr6UvX7hYuFw339UAhmY0AsNgjExsaK2C0TsggLuF8z3te987OwTyfJEg1rl2CTQgyJZbKsFoMlJvslGe1hJSkHXOyIZbI8LAabEKapInER2Cg1G7uH4rqFtd5ypBeF1UuricAlLnbEMln2icFm+YRkxsOHgFjZ2BHLZLGElCdFFssRps/XBN6SAeX1wnnCpEj2+GUnTIzUD9V/s/C14H2r6rSx/cyyqxFPilQ+VdcUrtm+FVF1TSZMICAZLwiVL23XP0t33EnxPiYM/2DX7IQJHvFkeH/a6jwp4xTvX7Iv2Ql7esSa4aep13WPN+CFA3Ci8IZgfebE9WfCuMT6QjlZshP29IgF3PpCMmZquE7UvTed7roavVHdsj5PVUJIgB0cT0OTrFSD1X21SXEE960fU5WQvS7ITFNNwpNjA0HfcYn1ozUhQzmnH9LIU3xN6Tuk4dTTzhtH5T4nzFYutxVXvsLVd7r6vK52euSGOFJ/UMduigXcC/f8+dv9XmmE9ezxy07YMxhsXb8RrD/spljAWTMAZZ8MtsrnCOMS6y/lZMlOmODRevX1/rTV1ybYy9HV+5fMmZ0wwSOOQZ4RvE9N9aekW45OEgIe0/VoKd0n/EdoSgRt9wrojlu8j8n+ZCdM9uggwVm6EHTvH/domxTx/gX9ivnLRQitxPSx+sMuT5V/8+k9ZNiJnQj+YSaE09lNAl/xPh9gx+DefPirFXzk3Wf7wHfGwJkY98Z5enzIHC1/gnKMWrcI/p3BzqW0oYNuqlheP3314cYnvru0+U9iYvzP7V+nhODgi4J3oqnO1z++AqaI507hwpe/Cp6zqR7jv++b4t9s3y6Ef+owmIo39YtexVNdUwaMLxVP7JWnKSSeJ6Qb1RZLuFRs/jHnaGOFwFE5fxKzUvBHG3zRO0foK7H+tfGzLvgvkvi/SsD3mUH5bV2tTcYcWhOtLuVkiSVkAbe6OP7jGuuLdM9/0eNFr69YmykD5qui5eKDWN3h5Sm67//WmfWkSSxnin9z/LGE29XD6t4wx3Bo4Sanu+1QleAd5nqevAcFa5My95YLXY9MXnZcv1G9SW5Ug7X7SpOi06NPsljDIcL9smR1Q1/0eHKsLlvKWLlain7as1xVmafwylhS6e0Rqr5ceZKbhDaru7dJ0enRJ1ms4RChT0jof0b8gP4tL2OOO34nPe9PqM7/Zfw2IgLYxgfLxZrRJLRZ3YlMCI+tdXJZ02h0f7XTrfrBcadQ96egv2/oU/UNXe9QXy/YwJb3u+JhMW8SNieVHtfQlGv1KCdLLOF6WbK6fHI9tcb6T3TvXadr+1Vlppy7hJ8Llwl+B/Sl7vEl8GKBpxFQ3iDQVvFwpe8vBbjghNu215WZFk8SvOD/LsH2WeOVTN3qUU6WWMK6bSM7LZ4Gdis85vzqPhA8Z1vdJ4Nkh7aaS9Tug+Y52mzSTuLYgJwssCZeL/gdFrznCk3i7TTpRd/vQrhOrF6/rf64+rwoxAaMX38oGWqeFZJyQGizTzu28eGJSH3LuVZ9QmJ1KSdLF0K2o88Kvk9TnQAcNfDwFF1vF54TvhKa+jBNxcpGKTbxYANb2MQ2crSwVWjq4+8z1rajH99HXdKkKyHnWawn3wi+b1Xn7fwPQpUMFb8ni1S7RXhS8DwXfU8zXLlEzZVNrnDBCTc26oSk8JELH21fW4aH2YCxtontRzlZ+hKeLcsbhB3CbmGP8JLwR+EMIVaYoqwPJ8R2lN5C1xeuWDlTiizWvDDuFfD/VYGnrstRj/V9rAmR31lkn1jsoLokZMb1JbCjFut7a0KOHLV3Pex97PrUvaM4lbmq1/Vcc4qTUpgPCfm7C9bNrh6qet2/hZTnS1unR24Ig1olTusD6wBb2ja5QAp+27uirdMQ2q3vrVNWjP3shDFGjQ47sTcF6wcvhqGkLFW7fzHkOL1pV6emoYn1eyoSQqSuEfz2l18/O55LBRZ6QHmT4J8M+nY5+ZV6NpnKhBCdzYIfXGydvuMS72OyH9kJe3jEr9+fIXm/QvX31J/ztHGI9yvZh+yEPTx6WH28H13rj/awm6OL9zOZMzthR49ulb73YYvuXSc8ILwm8BYNKD8gXCug4/vdqnujFu9Dsv3shB08Oku6vF1bHzi+OC6C4xjpcFRj++5XPXRUHkHbWcXap5ws2QkjPVogvX8I1j4B5btLrPxUij6h23SPZI1KrP/zOiHrFTE/mNt6RPH2Gp51PXj6dvFj6Msz1y874Rxzc4H3Dv5Awdp+rFm9teURxwX3r1t75VGwY6CcLNkJBx4t1vVeYYfwicB0tF3gyaBu7e5Uven7hZpahb5wWE5s8LEL+18Inw7K+OQPJXWrt1iblJMlN+Fx8ogpI/aTLR+KfpE8ioMcoY9OdpzorRWOzWDX8k5cQlionxG8k6H6HRmCUlHAFbLl256WPj6niOcMco36+J3piHeELrKwi3KLbte3dd518HmipFOGA54vVZufpjjFXSZwNMI8f4Pgj0joc4aQKmyBvX3+TOl6gUQdL+DLW4IdM33OF/qK5aKcLLkIWUAtFwM/uca7k3TPB4WFNlXWiMDaf0P1uo0CPpEoq5uyTbY8lJMlFyFv2JaLX2OT3KIGq/uvJsUO9192nL8K9F3pdNn99RU7DsrJkotwnzypuHgP+FHAsxmjS5/PArqxTbsdZ8g+61blK9c9sUZq9CwP5aCMclFnLq6k7X/dWx2viDpcrc02fquLCT5wjURGmZBdbkRXuLqtXmkrKvPJNlUsBwG/KkDop1Pve6Dr8Js6PXIBdzaozXKxw6pbVFnU/aLKhiBVNonA2scGtrzU2Z/KRf1cjZxH3waF3dQKgS0nWCn4ZDDVLRZSZYkI6uyzgWDNYOu9Sqizz5a5r9jxUk6WnIT+V+q56+qbk0fwHcEWFetshO6lPp2e+ztvepZyEvId4oUOQXleum1/Xd5lWHD9ZcT2c8Zvdqy5CQkKv3r/1mztMLXwy8yZDNHNCj8K1jM/fVn7HC7yNOewb3kpJ0t2woFHrAssltuFvcLnwksC91LmbHWPkrOlhS1sfibsFl4R1ggTffxOsGxSWPyKxEVgRmo2dnvausW8h3zkSHL+ehz11FV9rD5uG2FMQvw50s1tpKV9LgI+Vv+ca0korFZf+9jF/vV5gsmp6HqBRnHAxY5YJssCMfhvFBxDLElmnl6CpRoaxy32h0wMiWUWWS4W/1cgZH+jcKlQFvrwX98Tu2VCVrlHbDbjpRwfj7uzZmJAxgYAYv+klMQ0J4ZYEbOYzZPU+gmPnl9TSlIOTQox6jxN8V2gj7A4sa5wUnuhcJpwuK8j+xWDD4RtwtYBOIIpUiJQIlAiUCJQIlAiUCJQIlAiUCJQIjDREfg/4XDqwH1X048AAAAASUVORK5CYII=;" vertex="1" parent="1">
          <mxGeometry x="970" y="910" width="50" height="50" as="geometry" />
        </mxCell>
        <mxCell id="sYxTYqJM8p4w1BAATTXQ-17" value="" style="endArrow=classic;html=1;rounded=0;fontSize=12;startSize=8;endSize=8;edgeStyle=orthogonalEdgeStyle;exitX=1;exitY=0.25;exitDx=0;exitDy=0;strokeColor=#CC0000;" edge="1" parent="1" source="sYxTYqJM8p4w1BAATTXQ-9">
          <mxGeometry width="50" height="50" relative="1" as="geometry">
            <mxPoint x="1030" y="1010.0000000000005" as="sourcePoint" />
            <mxPoint x="1073" y="860" as="targetPoint" />
            <Array as="points">
              <mxPoint x="1073" y="922" />
            </Array>
          </mxGeometry>
        </mxCell>
        <mxCell id="sYxTYqJM8p4w1BAATTXQ-21" style="edgeStyle=none;curved=1;rounded=0;orthogonalLoop=1;jettySize=auto;html=1;exitX=1;exitY=0.75;exitDx=0;exitDy=0;entryX=0;entryY=0.75;entryDx=0;entryDy=0;fontSize=12;startSize=8;endSize=8;strokeColor=#003366;dashed=1;" edge="1" parent="1" source="sYxTYqJM8p4w1BAATTXQ-19" target="sYxTYqJM8p4w1BAATTXQ-9">
          <mxGeometry relative="1" as="geometry" />
        </mxCell>
        <mxCell id="sYxTYqJM8p4w1BAATTXQ-25" style="edgeStyle=none;curved=1;rounded=0;orthogonalLoop=1;jettySize=auto;html=1;exitX=0;exitY=0.25;exitDx=0;exitDy=0;entryX=1;entryY=0.25;entryDx=0;entryDy=0;fontSize=12;startSize=8;endSize=8;strokeColor=#003366;dashed=1;" edge="1" parent="1" source="sYxTYqJM8p4w1BAATTXQ-19" target="sYxTYqJM8p4w1BAATTXQ-22">
          <mxGeometry relative="1" as="geometry" />
        </mxCell>
        <mxCell id="sYxTYqJM8p4w1BAATTXQ-19" value="Internet" style="shape=image;verticalLabelPosition=bottom;labelBackgroundColor=default;verticalAlign=top;aspect=fixed;imageAspect=0;image=data:image/png,iVBORw0KGgoAAAANSUhEUgAAAGQAAABkCAYAAABw4pVUAAAAAXNSR0IArs4c6QAAAERlWElmTU0AKgAAAAgAAYdpAAQAAAABAAAAGgAAAAAAA6ABAAMAAAABAAEAAKACAAQAAAABAAAAZKADAAQAAAABAAAAZAAAAAAvu95BAAAGSElEQVR4Ae1dScsdRRSNUxyCG0FjHLJwQkSjiIjzwpiFIhExiegqLgTFGAX/gjvRjSKKKOLOuHGhARVcRI1jVHBaOBCj+ZzFWeIQPUe/iuc7dt7ret28ru53L1zq3qp7q26d+6qru/q971u0KCgQCAQCgUAgEAgEAoFAIBAIBHqKwFrE/TV4J3h1T+cwmLD3wUy+Av81z7tQrgQHdYjAFxg7JYTlD+AVHcYz80OvAQJ/gjUp70FfMvPIdAjARksIk/Ngh/HMzNBnYKbrwUdWzPh+1Okq2Q39wgq7qGoJgUvQzx9ggs6N/BSw0sFQ3gJrUt6Evp8ahdweAveiKwX7Y+hLrftzoXNlqN3VZhNqSwhca0AT9KfB+1r/D0PXhGyz9lBbROAhA5vAX2/9Hw89XdpSYs43m1BbQuBA9LMVnIBm+SX4ULDSJihqc482hpyPADfwu8HrKlyXo+5XsAJ+m9ldau18ePRLm7mEujcE+JStl5xbKgzvQp0m5APoPEZJtD8EPVKh7empMco8BK6DuYL9O/SLrIsjoPsqOdtsHoWu/dxs7Z2rfVmyTwGpbwUtftrvBOsK4L7xrNhQXGX6FtPPNL1ztS8JmQNSPFLn+VSisyA44JtT43x5nul8SFQ6UZWQ8xHwW1y/U+KeoJekD22IZda+09oHpV6B2fCywbuX1RPMrI4/n7oV8DdsnMOtfZe188hE/X+29kGp/LSlyX46wczq+POZY7eM87mNw0vwb9LOeBabDZOQ4mRfgz3XSpNMpeEwVk1+qaxy4GbOfSTZfGNG3k471ikVnZC+bOoJ0JMhaMyfpYb5kre+2v4LdD6/JGJyDkkKSt4m642CNHUjavDdRJA3Kg8TlV5XBfJy07ebzoQpfadKCXKfEnISANtooD1p+krT3zXdb3M/svbO1b4khJv542B9J759vg7FHrpsj/Sv8Jzpp5n+vumDUtNGm8rcySW/VKr/WiipPpV++eL+ouddtDtBO4H8GDj5s9xg7YNSdaKUc2mU/wXoTNvvq+h8k9m8bDYHQOeX57SfFWYzKFUnSjmXxvnzIPAZ8O1gf7Y4B3X6fMK+rgEr8XKmY/AZpi+XbJ1HbVknSzmXJvVfioF2gNX/Hej+/OGXK75bGTQpINNKCEHfAvaxVxnSvLvy/WXwr3AdFMNkrDqJ/03o1f38wJEDP2J2r7Fy6OTA5M53Ev87MIj6PQ/9IBuYR/C+v/CubfCkwFDOpUn8+bDI4xP6vgQ+DKzEY5K3wdo3n+4HvZknAHTSlHNpUn+Cfhy4CuQHUK/9cqXwFnomSCc+zYTsDdxb0eAxMUEzQz753Ik39dfxroSix/Tsm+daS9Ro6HJTQJv6K76fQNH+vod+qhrMgqwAUM6lpv463hyU1B9f416sjbMiJwBSmTvv5JfKXH+15/v5HWAer1+uDaXL+r2mprESSKXcvpv669i9latuFXs7mSEEHgkpLIuRkEhIYQgUFk6skEhIYQgUFk6skEhIYQgUFk6skEhIYQgUFk6skEhIYQgUFk6skEhIYQgUFk6skEhIYQgUFk6skEhIYQgUFk6skEhIYQgUFk6skEhIYQgUFk7OCuHPyDaA+S3zn8Dp+1OpRNUCSvV1ywXOUOr6lWpHjF4E8zcs/hM8VDWjo+DOr/GXOvnS49oG7JY1S8F/3sxuJKP5h5G/2uIvgRsTL1OlfwL7Et+NjbOBDrhn6ISfgH50Gx0PvI9jMD/+6Q/Fbmsbc/7ROuVAQfUQOBZmmhD+H5ORVOcL0exQqY6P2s+6nIVfzm3vrAM7lflHQqYCc/1BIiH1sZqKZZsJWYeI+Ztx8pqK6Lturwipn1V6l+AblM4o/YCfNnPaMC933V4R0lSq6uL3TzBtrpCpzC4GWXgfPWqF8O+HcGWQr6oAruv2ipCmUpW1Quo8U3gS6vhMZaY9GSQLv7hkFZbVSEgkpDAECgunzgrh4aJSHC4qGqNlHi4qOZbaVlv243ceKUdSxsPHZGwG611WK8fvVX/XUAcJeSHoo/C4YXwex1sshgnfCY8aKNrG4/MKMGzlFS5Txhf0fCccwE+GwavzGKJoj5hdvhN+AexvESNR/08UMSJWvEy1tjLQV1AgEAgEAoFAIBAIBAKBQCAQCAQCrSLwN7QKeOesis6eAAAAAElFTkSuQmCC;" vertex="1" parent="1">
          <mxGeometry x="900" y="910" width="50" height="50" as="geometry" />
        </mxCell>
        <mxCell id="sYxTYqJM8p4w1BAATTXQ-26" style="edgeStyle=none;curved=1;rounded=0;orthogonalLoop=1;jettySize=auto;html=1;exitX=1;exitY=0.75;exitDx=0;exitDy=0;entryX=0;entryY=0.75;entryDx=0;entryDy=0;fontSize=12;startSize=8;endSize=8;strokeColor=#003366;dashed=1;" edge="1" parent="1" source="sYxTYqJM8p4w1BAATTXQ-22" target="sYxTYqJM8p4w1BAATTXQ-19">
          <mxGeometry relative="1" as="geometry" />
        </mxCell>
        <mxCell id="sYxTYqJM8p4w1BAATTXQ-22" value="Kaluza&#xa;Platform" style="shape=image;verticalLabelPosition=bottom;labelBackgroundColor=default;verticalAlign=top;aspect=fixed;imageAspect=0;image=data:image/png,iVBORw0KGgoAAAANSUhEUgAAAGQAAABkCAYAAABw4pVUAAAAAXNSR0IArs4c6QAAAERlWElmTU0AKgAAAAgAAYdpAAQAAAABAAAAGgAAAAAAA6ABAAMAAAABAAEAAKACAAQAAAABAAAAZKADAAQAAAABAAAAZAAAAAAvu95BAAAHzUlEQVR4Ae1cW6hVRRhOLchLF009gVqmUp20IPRoVBJ1HiqUyHySLhTHhxB6KoogoofKro9pEWVQT2EXUzsFJlIRqV18KCW6QEeDPPmgaUmU1vfpnprzz+yZtfZeazez+X/4mDXz//PPzPefWbPW7Fln1CnNZSFUy4F+YBrQA4wCVMoz8Deq7Ad+ArYAbwA7gUIyF1aDAJ0o6uNgM/jtBYLCGXEE0EB0hgNyfUuziDAYxzQYHf9jJOfLTFDMmsDb1HZgvFE00r1IXwI+Ag41yjRpjYGzUG0xsBKYLlxwpnDN3mPKfWvGc1Cebgw0rYyBsfC0BpDLwibTAiMjlQyGSr0MPA/3kvcFbPIpodiHPKOoUi8D5HgIsIOyejQKrhPtvoj8UVGm2eoZIMfrhNt+BkQuMB8LI83WxwAflmyZwYBMsUtwPSzymq2Pgf3C9VQGhLDluJ3R61oZkFyPlsGotXV1HmdAAxLnqKMWGpCO0h1vTAMS56ijFqd2tLV6GpsIt4sarj9FerCFZi5EnV6ATz38nYIbfmWEPPYBU4HdwLdAy2K/KfKaG425yIPo6O+AGQOvHyjR+Umw3WjVp5/vgSuBonIVDH8ATB+YbgD4hxITcm3X47VTkEtA7vH03QxuFQcWEe50bwNMHTvlzvYsICZzYPArYNc111tRbnbTm/npmoCMwQj5AmsGL9OfoaNNSPqhlPXsfJEN1rURH9eGOgCdE5BcF/XzMRi5w2CPvQeZ8+wCz/WJnVVPuSnimhCTKnyMaCPXgPw2YhT+TMymXT1b5ZoVkiMhpU+Xa0DM05BvTCzbDsT25AZh8xeNmwgX+5iEbOj7vZgDn96+b/I6l0Wdtwv+Bcr+H0bZfKCIPAwjWZ95Pj4X+bV0LOx2NPHxEMpj4qwhrCA7lEtA2Pd5wNsAn4qIt4Cy/b8Ndb4A/gB+BJ4EJgBFhbZPA0MAfdDXCqCIdF1Aigw6ZRsnILmuISmT3FbfNCBt0Vd9ZQ1I9Zy25VED0hZ91VfWgFTPaVseNSBt0Vd9ZQ1I9Zy25dH3A9Wz8MgtZZX6GThTNsH9er6pqyTCgN6yEgmE6YYGxDCRSOpbQ/iBzoFE+tft3ZiMAQ7IQea82yvHklteNxdTj5iuIYlFSAOiAUmMgcS6ozNEA5IYA4l1R2eIBiQxBhLrjs4QDUhiDCTWHZ0hGpBKGbgM3ni+lj+oERuAS4EycgeMdwE8dbgXeAYoc3LxDNjzRz3WpY8vAZ6GbFly3VxciBHzBLvsP8/78txvEXkERrI+8zyvy3O7MRkHg52AzwfPDcfE2VxkBemMRjlIMyI4Hp5+jwm/fuIJdTl+k7835gD6+wP1/4RuVsSHE5Bc1xB+kBOaBZw9UyNk3AD9mIDN0oDOqJaYC0/K35pu9JQHi3INyPjgqE4qYzbt6tkKb1khibXh1M01IPxsYNgZzX8F/MaQNiHZGVJCx3UkJlX4cNow90yTznUs0ixYhW6ZPsv07gJd5ombrU188Fv3mUBMuEbwuxTZPvNbALYREnIt6zoFuQSEA+Wiaj9p8fo+KgrKRNjxgx+bFH70f0XB+jTjN+3fAbaPN5Gn75h0XUA44LOB6xvgf/5sRfjEdROwCAgt9M18sw7r0sfsZkae8q4MiGec2RQ5Acl1Uc+G8bId1YCUZaxmew1IzQSXda8BKctYzfYakJoJLuteA1KWsZrtfYet+Ux/Sc3tqvuTDMyQRPDVnm+YKokwoLesRAJhuqEBMUwkkvrWkN3o29FE+tft3eDPxM56be9S8jqn3d7cA6Z7WalHUNeQxCKkAdGAJMZAYt3RGaIBSYyBxLqjM0QDUikDU+BtNfBJA48jnQyUER5OeA34DHgfuAso84fKAw4Djbr08SrQB7Qsub4YXoAR7wVk/4dQNhMoIrfDyHe+93WUFwkKbdYDsg8813srEBPnxZAVpLNc3tT5b7xl303+3RgT0J8L2Ge6TF2T3lnAB2eGsZfpEeh6Ij66JiCTMNBjATKo43mtkKyEUpJo5wdDlRs63uLsOvKaAQuJE5Ai0zLk8P/SMSChvlN3TqRzXH9CEjs9z7qx9SrWhtN+aFCOcUIFXDt4S2gmh6GgTUj2hJTQfR3RUx3zwZ3z0iKnWS5rCJ+oZN9N/tECLJwGGxJm6tgpF+X5BXz0wYa2dl1z/RXK2UZInFsWjY0Dk+YSEA72FU//16HM9zsPih2ZgxIZFM6uFY5l8wI+TXG2Gv6YcnbNBmLiBMT3m/o8eCkyXWONdUp/ORq6ptHYNqS7GtdFEwaWXzpdDBwANgHDQBnh09RSgOsWb2N8AuTMiQkDwpk0QuzI8jqXGTJiEJlmnBnCRf24GEyuC70YRhZZyfVxFvwiul7kcU9U0WyLDPBWZ8swA7LPLsH11SKv2foYWCxcn3hUfwKF9jrCAI0ThpqtngGeOBkCbO4fYzN8lrYLeb2GCpVaGXgB3iXv/777bPYo16JMZ0r1MSGnvmC8w6b4HkLpBXYAE5ixhLevl4EPgYNWuV6WZ4Bf5XLNGACmiep8GeWd6hu7fBkyoR1UOb00795yWuGEnN9sB8K+XoLMIaAVx1qnPG+cGZwIQeHty7emKOHlCQ9xthE8XyQjYdYQWc78AmA50A9MB/gSw/cWlfIMcDdkP8A1+QNgPfA54Mg/K7GK4BBK1+kAAAAASUVORK5CYII=;" vertex="1" parent="1">
          <mxGeometry x="780" y="910" width="50" height="50" as="geometry" />
        </mxCell>
        <mxCell id="sYxTYqJM8p4w1BAATTXQ-28" value="Storage Heater" style="shape=image;verticalLabelPosition=bottom;labelBackgroundColor=default;verticalAlign=top;aspect=fixed;imageAspect=0;image=data:image/png,iVBORw0KGgoAAAANSUhEUgAAAGQAAABkCAYAAABw4pVUAAAAAXNSR0IArs4c6QAAAERlWElmTU0AKgAAAAgAAYdpAAQAAAABAAAAGgAAAAAAA6ABAAMAAAABAAEAAKACAAQAAAABAAAAZKADAAQAAAABAAAAZAAAAAAvu95BAAAFI0lEQVR4Ae1dTa9URRB9kiDIAtegv4GNIawkxPATCL8Bov9E3LngDxgh7GTPDjDysSJsYElioiYaMMRoiFYNU/Nqztzq6bqM9V7o00mnuqpPV717znzcO/Om794eGxkgA2SADJABMkAGyAAZIANk4P1h4LgcyjfSf1v2a2KPSZ/bRss3l6dw3Q2Z+Re6xua20fLN5Wly3VcSRTHM/3JyRTs4Wr42G8nZM4J/Ld0EQPuXzH2WyDlavgQ126EnBfJMuhfhD/G1+9hz8T+Wvq2Nlm8bH+n5qdf5S5JFuxdExz3vJ6PlSxPeWnB5gvRv3QIdoyhfuHkcjpYPj/+d/TuSwRP+SHx/mqtjjXnMTfGjNlq+iIfZ8d9lpSf784lM5wHzYgJjodHy2XHvzL6RTF6QjyYy67PEY/6ZwFhotHyL4/7Ajn4HVon2LcpNnGcJxkfAp3vADFCQAxYAy1MQZOSA/R5BPpS/UT9L+lH6n8t+X6x+JqVzu2r+zR7fZ+bUOOz55hzT3mlZ9Vg6Hpz5el1xapnZYmaX4Q1j82YNYH5kDYcW8TaPcfQNhzbCYRx9zGN+L87wodVHf0sMK/RQcEelm282SmzzZg1nfmQNhxbxNo9x9A2HNsJhHH3MY34vzvChbX3kjUWuShaMRYkjHMbRf9/yRccTxvU9w5Pyg/j6EvaJ9Nswdw98XRc1n5O4iKWJ+CuJefJUCGufysDPvQSfRBtT6zy1eFmsaJ1lbV28X5OjXTHQEuQpFLkuvj5L9NmhY9+eeIfj/4cBvc7wL0ut8ZUJbPRXYR7DYRx9w6GNcBhHH/OYH+Ewjr6tR9uLw3Ubvp724vcXmFz9n6TztHeDvlUAOVtNzBnoRZ9eZ2BS8x/IHC8M3/IT8WtcmY1w3XF99Ot1xl3peualXcf6MqVz1qygWYujtXmzNm9+ZA2HFvE2j3H0DYc2wmEcfcxjfi9ugY++s7BkGauFfYtyE+dZgnHrLAugdCsYoCAVLCdqUJAEWRVQClLBcqIGBUmQVQGlIBUsJ2pQkARZFVAKUsFyogYFSZBVAaUgFSwnalCQBFkVUApSwXKiBgVJkFUBpSAVLCdqUJAEWRVQClLBcqIGBUmQVQGlIBUsJ2pQkARZFVAKUsFyogYFSZBVAaUgFSwnalCQBFkVUApSwXKiBgVJkFUBpSAVLCdqUJAEWRVQClLBcqIGBUmQVQHtEUR/uMOdHDZ/I1Ohz0YN7uSwTwn+zgP9feT6qBe3vmrC404O67+MQmLRn6BwEerFRetXce7kcMgE4U4O64KsHqnLQe8jvxeH+Td87uRwAIK0zrJUWbZiBlqCcCeHYjG2leNODusvWfhegH7EZy8uWr+KcyeHQyaIKsOdHFaPz3A3C3sG7CPXRzZvdn12hsedHN6SZoRGNqIW8RFuEY92W2guCia1sG9RbuI8SzBunWUBlG4FAxSkguVEDQqSIKsCSkEqWE7UoCAJsiqguxREb8Dim7/dkcVP2GBp/wbfu6PlWxz7LgX5xbMp43Pgq3sWYj+D793R8vlj38n4lmTxF0E9NwX7rlF5tHwNKuZNXQRBVJxtt8270Cg1Wr4GFfOnbshS/yzR8aVlx/j3HWVGy9dBSQ6it1PV26p68t/l1quj5cux3Yk+I7jXIIoXiDcn7iRyl7DWf6zoF1/ZNlq+LD9d+KnX/573jSj5aPkiHmbH9cLwmvRfl/1rsRqb20bLN5cnriMDZIAMkAEyQAbIABkgA2SADKQY+A/2cgHiP+SwlgAAAABJRU5ErkJggg==;" vertex="1" parent="1">
          <mxGeometry x="1060" y="780" width="50" height="50" as="geometry" />
        </mxCell>
        <mxCell id="sYxTYqJM8p4w1BAATTXQ-29" value="" style="endArrow=none;html=1;rounded=0;fontSize=12;edgeStyle=orthogonalEdgeStyle;exitX=1;exitY=0.75;exitDx=0;exitDy=0;endFill=1;startArrow=classic;startFill=1;strokeColor=#003366;dashed=1;" edge="1" parent="1" source="sYxTYqJM8p4w1BAATTXQ-9">
          <mxGeometry width="50" height="50" relative="1" as="geometry">
            <mxPoint x="1030" y="943" as="sourcePoint" />
            <mxPoint x="1098" y="860" as="targetPoint" />
            <Array as="points">
              <mxPoint x="1098" y="948" />
            </Array>
          </mxGeometry>
        </mxCell>
        <mxCell id="sYxTYqJM8p4w1BAATTXQ-32" value="&lt;font style=&quot;font-size: 10px;&quot;&gt;Consumption&amp;nbsp;&lt;/font&gt;&lt;div&gt;&lt;font style=&quot;font-size: 10px;&quot;&gt;Data&lt;/font&gt;&lt;/div&gt;" style="text;html=1;align=center;verticalAlign=middle;resizable=0;points=[];autosize=1;strokeColor=none;fillColor=none;fontSize=16;" vertex="1" parent="1">
          <mxGeometry x="1090" y="880" width="90" height="50" as="geometry" />
        </mxCell>
      </root>
    </mxGraphModel>
  </diagram>
</mxfile>
